<?xml version="1.0" encoding="iso-8859-1"?>
<!-- Generator: Adobe Illustrator 18.0.0, SVG Export Plug-In . SVG Version: 6.00 Build 0)  -->
<!DOCTYPE svg PUBLIC "-//W3C//DTD SVG 1.1//EN" "http://www.w3.org/Graphics/SVG/1.1/DTD/svg11.dtd">
<svg version="1.1" id="Capa_1" xmlns="http://www.w3.org/2000/svg" xmlns:xlink="http://www.w3.org/1999/xlink" x="0px" y="0px"
	 viewBox="0 0 512 512" style="enable-background:new 0 0 512 512;" xml:space="preserve">
<g>
	<path style="fill:#B1C3D0;" d="M192,64v80h-32V64c0-35.289,28.711-64,64-64l200,0c35.289,0,64,28.711,64,64v432v16h-32v-16V64
		c0-17.648-14.352-32-32-32H224C206.352,32,192,46.352,192,64z"/>
	<path style="fill:#B1C3D0;" d="M24,224h320c8.837,0,16-7.163,16-16v-32c0-8.837-7.163-16-16-16H24c-8.837,0-16,7.163-16,16v32
		C8,216.837,15.163,224,24,224z"/>
	<path style="fill:#566E7F;" d="M24,224h320v0c0,8.837-7.163,16-16,16H40C31.163,240,24,232.837,24,224L24,224z"/>
	<path style="fill:#50BEE7;" d="M254.453,283.266c-3.016-4.109-9.891-4.109-12.906,0c-2.93,4-17.547,24.586-17.547,37.461
		C224,333.563,234.766,344,248,344s24-10.438,24-23.273C272,307.852,257.383,287.266,254.453,283.266z"/>
	<path style="fill:#00ACDD;" d="M254.453,283.266c-1.015-1.383-2.512-2.126-4.107-2.578C255.69,288.745,264,302.83,264,312.543
		c0,12.836-10.766,23.273-24,23.273c-4.703,0-9.061-1.367-12.768-3.642C231.368,339.2,239.077,344,248,344
		c13.234,0,24-10.438,24-23.273C272,307.852,257.383,287.266,254.453,283.266z"/>
	<path style="fill:#50BEE7;" d="M190.453,283.082c-3.016-4.109-9.891-4.109-12.906,0c-2.93,4-17.547,24.586-17.547,37.461
		c0,12.836,10.766,23.273,24,23.273s24-10.438,24-23.273C208,307.668,193.383,287.082,190.453,283.082z"/>
	<path style="fill:#00ACDD;" d="M190.453,283.082c-1.015-1.383-2.512-2.126-4.107-2.578C191.69,288.562,200,302.646,200,312.359
		c0,12.836-10.766,23.273-24,23.273c-4.703,0-9.061-1.367-12.768-3.642c4.136,7.025,11.845,11.825,20.768,11.825
		c13.234,0,24-10.438,24-23.273C208,307.668,193.383,287.082,190.453,283.082z"/>
	<path style="fill:#50BEE7;" d="M126.453,283.082c-3.016-4.109-9.891-4.109-12.906,0c-2.93,4-17.547,24.586-17.547,37.461
		c0,12.836,10.766,23.273,24,23.273s24-10.438,24-23.273C144,307.668,129.383,287.082,126.453,283.082z"/>
	<path style="fill:#00ACDD;" d="M126.453,283.082c-1.015-1.383-2.512-2.126-4.107-2.578C127.69,288.562,136,302.646,136,312.359
		c0,12.836-10.766,23.273-24,23.273c-4.703,0-9.061-1.367-12.768-3.642c4.136,7.025,11.845,11.825,20.768,11.825
		c13.234,0,24-10.438,24-23.273C144,307.668,129.383,287.082,126.453,283.082z"/>
	<path style="fill:#50BEE7;" d="M254.453,451.266c-3.016-4.109-9.891-4.109-12.906,0c-2.93,4-17.547,24.586-17.547,37.461
		C224,501.563,234.766,512,248,512s24-10.438,24-23.273C272,475.852,257.383,455.266,254.453,451.266z"/>
	<path style="fill:#00ACDD;" d="M254.453,451.266c-1.015-1.383-2.512-2.126-4.107-2.578C255.69,456.745,264,470.83,264,480.543
		c0,12.836-10.766,23.273-24,23.273c-4.703,0-9.061-1.367-12.768-3.642C231.368,507.2,239.077,512,248,512
		c13.234,0,24-10.438,24-23.273C272,475.852,257.383,455.266,254.453,451.266z"/>
	<path style="fill:#50BEE7;" d="M190.453,451.082c-3.016-4.109-9.891-4.109-12.906,0c-2.93,4-17.547,24.586-17.547,37.461
		c0,12.836,10.766,23.273,24,23.273s24-10.438,24-23.273C208,475.668,193.383,455.082,190.453,451.082z"/>
	<path style="fill:#00ACDD;" d="M190.453,451.082c-1.015-1.383-2.512-2.126-4.107-2.578C191.69,456.562,200,470.646,200,480.359
		c0,12.836-10.766,23.273-24,23.273c-4.703,0-9.061-1.367-12.768-3.642c4.136,7.025,11.845,11.825,20.768,11.825
		c13.234,0,24-10.438,24-23.273C208,475.668,193.383,455.082,190.453,451.082z"/>
	<path style="fill:#50BEE7;" d="M126.453,451.082c-3.016-4.109-9.891-4.109-12.906,0c-2.93,4-17.547,24.586-17.547,37.461
		c0,12.836,10.766,23.273,24,23.273s24-10.438,24-23.273C144,475.668,129.383,455.082,126.453,451.082z"/>
	<path style="fill:#00ACDD;" d="M126.453,451.082c-1.015-1.383-2.512-2.126-4.107-2.578C127.69,456.562,136,470.646,136,480.359
		c0,12.836-10.766,23.273-24,23.273c-4.703,0-9.061-1.367-12.768-3.642c4.136,7.025,11.845,11.825,20.768,11.825
		c13.234,0,24-10.438,24-23.273C144,475.668,129.383,455.082,126.453,451.082z"/>
	<path style="fill:#50BEE7;" d="M286.453,363.266c-3.016-4.109-9.891-4.109-12.906,0c-2.93,4-17.547,24.586-17.547,37.461
		C256,413.563,266.766,424,280,424s24-10.438,24-23.273C304,387.852,289.383,367.266,286.453,363.266z"/>
	<path style="fill:#00ACDD;" d="M286.453,363.266c-1.015-1.383-2.512-2.126-4.107-2.578C287.69,368.745,296,382.83,296,392.543
		c0,12.836-10.766,23.273-24,23.273c-4.703,0-9.061-1.367-12.768-3.642C263.368,419.2,271.077,424,280,424
		c13.234,0,24-10.438,24-23.273C304,387.852,289.383,367.266,286.453,363.266z"/>
	<path style="fill:#50BEE7;" d="M222.453,363.266c-3.016-4.109-9.891-4.109-12.906,0c-2.93,4-17.547,24.586-17.547,37.461
		C192,413.563,202.766,424,216,424s24-10.438,24-23.273C240,387.852,225.383,367.266,222.453,363.266z"/>
	<path style="fill:#00ACDD;" d="M222.453,363.266c-1.015-1.383-2.512-2.126-4.107-2.578C223.69,368.745,232,382.83,232,392.543
		c0,12.836-10.766,23.273-24,23.273c-4.703,0-9.061-1.367-12.768-3.642C199.368,419.2,207.077,424,216,424
		c13.234,0,24-10.438,24-23.273C240,387.852,225.383,367.266,222.453,363.266z"/>
	<path style="fill:#50BEE7;" d="M158.453,363.266c-3.016-4.109-9.891-4.109-12.906,0c-2.93,4-17.547,24.586-17.547,37.461
		C128,413.563,138.766,424,152,424s24-10.438,24-23.273C176,387.852,161.383,367.266,158.453,363.266z"/>
	<path style="fill:#00ACDD;" d="M158.453,363.266c-1.015-1.383-2.512-2.126-4.107-2.578C159.69,368.745,168,382.83,168,392.543
		c0,12.836-10.766,23.273-24,23.273c-4.703,0-9.061-1.367-12.768-3.642C135.368,419.2,143.077,424,152,424
		c13.234,0,24-10.438,24-23.273C176,387.852,161.383,367.266,158.453,363.266z"/>
	<path style="fill:#50BEE7;" d="M94.453,363.266c-3.016-4.109-9.891-4.109-12.906,0c-2.93,4-17.547,24.586-17.547,37.461
		C64,413.563,74.766,424,88,424s24-10.438,24-23.273C112,387.852,97.383,367.266,94.453,363.266z"/>
	<path style="fill:#00ACDD;" d="M94.453,363.266c-1.015-1.383-2.512-2.126-4.107-2.578C95.69,368.745,104,382.83,104,392.543
		c0,12.836-10.766,23.273-24,23.273c-4.703,0-9.061-1.367-12.768-3.642C71.368,419.2,79.077,424,88,424
		c13.234,0,24-10.438,24-23.273C112,387.852,97.383,367.266,94.453,363.266z"/>
	<path style="fill:#8EADBE;" d="M344,192v8c0,4.418-3.582,8-8,8H40c-8.837,0-16,7.163-16,16l0,0h280H48h296c8.837,0,16-7.163,16-16
		v-32l0,0C351.163,176,344,183.163,344,192z"/>
	<g>
		<path style="fill:#8EADBE;" d="M192,64v80h16V64c0-17.648,14.352-32,32-32h-16C206.352,32,192,46.352,192,64z"/>
		<path style="fill:#8EADBE;" d="M440,0h-16c35.289,0,64,28.711,64,64v432v16h16v-16V64C504,28.711,475.289,0,440,0z"/>
	</g>
	<path style="fill:#566E7F;" d="M208.936,120h-49.872c-1.024,0-2.042,0.3-2.876,0.894C143.974,129.595,136,143.861,136,160h96
		c0-16.139-7.974-30.405-20.188-39.106C210.978,120.3,209.96,120,208.936,120z"/>
</g>
<g>
</g>
<g>
</g>
<g>
</g>
<g>
</g>
<g>
</g>
<g>
</g>
<g>
</g>
<g>
</g>
<g>
</g>
<g>
</g>
<g>
</g>
<g>
</g>
<g>
</g>
<g>
</g>
<g>
</g>
</svg>
