<?xml version="1.0" encoding="iso-8859-1"?>
<!-- Generator: Adobe Illustrator 19.0.0, SVG Export Plug-In . SVG Version: 6.00 Build 0)  -->
<svg version="1.1" id="Layer_1" xmlns="http://www.w3.org/2000/svg" xmlns:xlink="http://www.w3.org/1999/xlink" x="0px" y="0px"
	 viewBox="0 0 512 512" style="enable-background:new 0 0 512 512;" xml:space="preserve">
<path style="fill:#FFFFFF;" d="M342.099,345.079h56.366c4.014-51.655,45.363-93.003,97.018-97.018V16.516H229.089
	c52.246,25.99,88.236,79.94,88.236,142.147c0,0.179-0.007,0.359-0.007,0.538c0.001,0.045,0.007,0.089,0.007,0.135v194.001h16.516
	C333.841,348.777,337.538,345.079,342.099,345.079z"/>
<path style="fill:#DED8CC;" d="M300.808,229.09c-24.834,49.919-75.19,84.998-133.889,88.021v14.428c0,4.562-3.696,8.258-8.258,8.258
	c-4.562,0-8.258-3.696-8.258-8.258v-14.428C91.706,314.087,41.35,279.008,16.516,229.09v124.249
	c0,75.608,59.338,137.608,133.889,141.9V481.27c0-4.562,3.696-8.258,8.258-8.258c4.562,0,8.258,3.696,8.258,8.258v13.968
	c74.551-4.292,133.889-66.292,133.889-141.9V229.09H300.808z M166.921,446.341c0,4.562-3.696,8.258-8.258,8.258
	c-4.562,0-8.258-3.696-8.258-8.258v-22.472c0-4.562,3.696-8.258,8.258-8.258c4.562,0,8.258,3.696,8.258,8.258V446.341z
	 M166.921,388.939c0,4.562-3.696,8.258-8.258,8.258c-4.562,0-8.258-3.696-8.258-8.258v-22.472c0-4.562,3.696-8.258,8.258-8.258
	c4.562,0,8.258,3.696,8.258,8.258V388.939z"/>
<path style="fill:#FFFFFF;" d="M158.663,300.808c78.38,0,142.147-63.767,142.147-142.147S237.042,16.516,158.663,16.516
	S16.516,80.283,16.516,158.663S80.283,300.808,158.663,300.808z M264.58,176.544c-4.152,24.761-17.005,47.424-36.191,63.816
	c-19.405,16.58-44.169,25.711-69.726,25.711c-4.562,0-8.258-3.696-8.258-8.258c0-4.562,3.696-8.258,8.258-8.258
	c44.574,0,82.269-31.854,89.629-75.742c0.754-4.498,5.014-7.532,9.51-6.778C262.299,167.788,265.335,172.046,264.58,176.544z
	 M158.663,214.818c-30.963,0-56.155-25.191-56.155-56.155s25.192-56.155,56.155-56.155s56.155,25.192,56.155,56.155
	S189.626,214.818,158.663,214.818z M158.663,51.254c25.557,0,50.32,9.131,69.726,25.711c19.186,16.392,32.04,39.055,36.191,63.816
	c0.755,4.498-2.28,8.756-6.778,9.51c-4.511,0.75-8.756-2.28-9.51-6.778c-7.361-43.888-45.055-75.742-89.629-75.742
	c-50.119,0-90.893,40.774-90.893,90.893c0,4.562-3.696,8.258-8.258,8.258c-4.562,0-8.258-3.696-8.258-8.258
	C51.254,99.437,99.437,51.254,158.663,51.254z"/>
<path style="fill:#A7A299;" d="M198.301,158.663c0-21.857-17.781-39.639-39.639-39.639s-39.639,17.781-39.639,39.639
	s17.781,39.639,39.639,39.639S198.301,180.519,198.301,158.663z"/>
<path d="M158.663,102.508c-30.963,0-56.155,25.192-56.155,56.155s25.192,56.155,56.155,56.155s56.155-25.191,56.155-56.155
	S189.626,102.508,158.663,102.508z M119.024,158.663c0-21.857,17.781-39.639,39.639-39.639s39.639,17.781,39.639,39.639
	s-17.781,39.639-39.639,39.639S119.024,180.519,119.024,158.663z"/>
<path d="M257.801,167.034c-4.496-0.754-8.756,2.28-9.51,6.778c-7.361,43.888-45.055,75.742-89.629,75.742
	c-4.562,0-8.258,3.696-8.258,8.258c0,4.562,3.696,8.258,8.258,8.258c25.557,0,50.32-9.131,69.726-25.711
	c19.186-16.392,32.04-39.055,36.191-63.816C265.335,172.046,262.299,167.788,257.801,167.034z"/>
<path d="M59.512,166.921c4.562,0,8.258-3.696,8.258-8.258c0-50.119,40.774-90.893,90.893-90.893
	c44.574,0,82.269,31.854,89.629,75.742c0.754,4.498,4.999,7.528,9.51,6.778c4.498-0.754,7.534-5.012,6.778-9.51
	c-4.152-24.761-17.005-47.424-36.191-63.816c-19.405-16.58-44.169-25.711-69.726-25.711c-59.226,0-107.409,48.183-107.409,107.409
	C51.254,163.223,54.95,166.921,59.512,166.921z"/>
<path d="M503.742,0H158.663C71.176,0,0,71.176,0,158.663c0,0.179,0.007,0.359,0.007,0.538c0,0.045-0.007,0.089-0.007,0.135v194.001
	C0,440.824,71.176,512,158.663,512s158.663-71.176,158.663-158.663V159.337c0-0.046-0.007-0.09-0.007-0.135
	c0.001-0.179,0.007-0.359,0.007-0.538c0-62.206-35.99-116.156-88.236-142.147h266.394v231.545
	c-51.655,4.015-93.003,45.363-97.018,97.018H342.1c-4.562,0-8.258,3.696-8.258,8.258c0,4.562,3.696,8.258,8.258,8.258h64.305
	c4.562,0,8.258-3.696,8.258-8.258c0-49.118,39.961-89.079,89.079-89.079c4.562,0,8.258-3.696,8.258-8.258V8.258
	C512,3.696,508.304,0,503.742,0z M166.921,495.237v-13.968c0-4.562-3.696-8.258-8.258-8.258c-4.562,0-8.258,3.696-8.258,8.258
	v13.968c-74.551-4.292-133.889-66.292-133.889-141.9V229.09c24.834,49.919,75.19,84.998,133.889,88.021v14.428
	c0,4.562,3.696,8.258,8.258,8.258c4.562,0,8.258-3.696,8.258-8.258v-14.428c58.697-3.024,109.055-38.102,133.889-88.021v124.249
	C300.808,428.945,241.471,490.945,166.921,495.237z M158.663,16.516c78.38,0,142.147,63.767,142.147,142.147
	s-63.767,142.147-142.147,142.147S16.516,237.042,16.516,158.663S80.283,16.516,158.663,16.516z"/>
<path d="M158.663,358.21c-4.562,0-8.258,3.696-8.258,8.258v22.472c0,4.562,3.696,8.258,8.258,8.258c4.562,0,8.258-3.696,8.258-8.258
	v-22.472C166.921,361.907,163.223,358.21,158.663,358.21z"/>
<path d="M158.663,415.611c-4.562,0-8.258,3.696-8.258,8.258v22.472c0,4.562,3.696,8.258,8.258,8.258
	c4.562,0,8.258-3.696,8.258-8.258v-22.472C166.921,419.307,163.223,415.611,158.663,415.611z"/>
<g>
</g>
<g>
</g>
<g>
</g>
<g>
</g>
<g>
</g>
<g>
</g>
<g>
</g>
<g>
</g>
<g>
</g>
<g>
</g>
<g>
</g>
<g>
</g>
<g>
</g>
<g>
</g>
<g>
</g>
</svg>
